HIERARCHY
ROOT Hip
{
	OFFSET 0 1.131 0.0052
	CHANNELS 6 Xposition Yposition Zposition Xrotation Yrotation Zrotation
	JOINT Abdomen
	{
		OFFSET 0 -0.047353 -0.05
		CHANNELS 3 Xrotation Zrotation Yrotation
		JOINT Chest
		{
			OFFSET 0 0.132153 0.007439
			CHANNELS 3 Xrotation Zrotation Yrotation
			JOINT Neck
			{
				OFFSET 0 0.3078 0.006161
				CHANNELS 3 Xrotation Zrotation Yrotation
				JOINT Head_comp
				{
					OFFSET 0 0.0884 0.013
					CHANNELS 3 Xrotation Yrotation Zrotation
					End Site
					{
						OFFSET -0 0.156 0.0624
					}
				}
			}
			JOINT Left_Collar
			{
				OFFSET 0.02282 0.250342 0.017193
				CHANNELS 2 Yrotation Zrotation
				JOINT Left_Shoulder
				{
					OFFSET 0.15421 0 0
					CHANNELS 3 Xrotation Yrotation Zrotation
					JOINT Left_Forearm
					{
						OFFSET 0.265212 0 0
						CHANNELS 2 Yrotation Xrotation
						JOINT Left_Hand
						{
							OFFSET 0.27571 0 0
							CHANNELS 2 Zrotation Yrotation
							JOINT L1ProxPhalanx
							{
								OFFSET 0.014142 0.001733 0.014142
								CHANNELS 3 Yrotation Zrotation Xrotation
								JOINT L1MidPhalanx
								{
									OFFSET 0.04 0 0
									CHANNELS 1 Zrotation
									JOINT L1DistPhalanx
									{
										OFFSET 0.035 0 0
										CHANNELS 1 Zrotation
										End Site
										{
											OFFSET 0.029 -0 -0
										}
									}
								}
							}
							JOINT L2ProxPhalanx
							{
								OFFSET 0.0821037 0.001578 0.0219996
								CHANNELS 2 Yrotation Zrotation
								JOINT L2MidPhalanx
								{
									OFFSET 0.04 0 0
									CHANNELS 1 Zrotation
									JOINT L2DistPhalanx
									{
										OFFSET 0.028 0 0
										CHANNELS 1 Zrotation
										End Site
										{
											OFFSET 0.02 -0 -0
										}
									}
								}
							}
							JOINT L3ProxPhalanx
							{
								OFFSET 0.083 0 0
								CHANNELS 2 Yrotation Zrotation
								JOINT L3MidPhalanx
								{
									OFFSET 0.053 0 0
									CHANNELS 1 Zrotation
									JOINT L3DistPhalanx
									{
										OFFSET 0.03 0 0
										CHANNELS 1 Zrotation
										End Site
										{
											OFFSET 0.023 -0 -0
										}
									}
								}
							}
							JOINT L4ProxPhalanx
							{
								OFFSET 0.077274 -0.000761 -0.0207055
								CHANNELS 2 Yrotation Zrotation
								JOINT L4MidPhalanx
								{
									OFFSET 0.05 0 0
									CHANNELS 1 Zrotation
									JOINT L4DistPhalanx
									{
										OFFSET 0.03 0 0
										CHANNELS 1 Zrotation
										End Site
										{
											OFFSET 0.023 -0 -0
										}
									}
								}
							}
							JOINT L5ProxPhalanx
							{
								OFFSET 0.0675499 -0.001644 -0.039
								CHANNELS 2 Yrotation Zrotation
								JOINT L5MidPhalanx
								{
									OFFSET 0.04 0 0
									CHANNELS 1 Zrotation
									JOINT L5DistPhalanx
									{
										OFFSET 0.021 0 0
										CHANNELS 1 Zrotation
										End Site
										{
											OFFSET 0.022 -0 -0
										}
									}
								}
							}
						}
					}
				}
			}
			JOINT Right_Collar
			{
				OFFSET -0.02282 0.250342 0.017193
				CHANNELS 2 Yrotation Zrotation
				JOINT Right_Shoulder
				{
					OFFSET -0.15421 0 0
					CHANNELS 3 Xrotation Yrotation Zrotation
					JOINT Right_Forearm
					{
						OFFSET -0.265212 0 0
						CHANNELS 2 Yrotation Xrotation
						JOINT Right_Hand
						{
							OFFSET -0.27571 3e-006 0
							CHANNELS 2 Zrotation Yrotation
							JOINT R1ProxPhalanx
							{
								OFFSET -0.014142 0.001733 0.014142
								CHANNELS 3 Yrotation Zrotation Xrotation
								JOINT R1MidPhalanx
								{
									OFFSET -0.04 0 0
									CHANNELS 1 Zrotation
									JOINT R1DistPhalanx
									{
										OFFSET -0.035 0 0
										CHANNELS 1 Zrotation
										End Site
										{
											OFFSET -0.029 -0 -0
										}
									}
								}
							}
							JOINT R2ProxPhalanx
							{
								OFFSET -0.0821037 0.001578 0.0219996
								CHANNELS 2 Yrotation Zrotation
								JOINT R2MidPhalanx
								{
									OFFSET -0.04 0 0
									CHANNELS 1 Zrotation
									JOINT R2DistPhalanx
									{
										OFFSET -0.028 0 0
										CHANNELS 1 Zrotation
										End Site
										{
											OFFSET -0.02 -0 -0
										}
									}
								}
							}
							JOINT R3ProxPhalanx
							{
								OFFSET -0.083 0 0
								CHANNELS 2 Yrotation Zrotation
								JOINT R3MidPhalanx
								{
									OFFSET -0.053 0 0
									CHANNELS 1 Zrotation
									JOINT R3DistPhalanx
									{
										OFFSET -0.03 0 0
										CHANNELS 1 Zrotation
										End Site
										{
											OFFSET -0.023 -0 -0
										}
									}
								}
							}
							JOINT R4ProxPhalanx
							{
								OFFSET -0.077274 -0.000761 -0.0207055
								CHANNELS 2 Yrotation Zrotation
								JOINT R4MidPhalanx
								{
									OFFSET -0.05 0 0
									CHANNELS 1 Zrotation
									JOINT R4DistPhalanx
									{
										OFFSET -0.03 0 0
										CHANNELS 1 Zrotation
										End Site
										{
											OFFSET -0.023 -0 -0
										}
									}
								}
							}
							JOINT R5ProxPhalanx
							{
								OFFSET -0.0675499 -0.001644 -0.039
								CHANNELS 2 Yrotation Zrotation
								JOINT R5MidPhalanx
								{
									OFFSET -0.04 0 0
									CHANNELS 1 Zrotation
									JOINT R5DistPhalanx
									{
										OFFSET -0.021 0 0
										CHANNELS 1 Zrotation
										End Site
										{
											OFFSET -0.022 -0 -0
										}
									}
								}
							}
						}
					}
				}
			}
		}
	}
	JOINT Left_Thigh
	{
		OFFSET 0.1118 -0.1612 -0.0442
		CHANNELS 3 Xrotation Zrotation Yrotation
		JOINT Left_Shin
		{
			OFFSET 0 -0.477856 0
			CHANNELS 1 Xrotation
			JOINT Left_Foot
			{
				OFFSET 0 -0.431952 0
				CHANNELS 2 Xrotation Zrotation
				JOINT Left_Toe
				{
					OFFSET 0 -0.0442 0.119
					CHANNELS 1 Xrotation
					End Site
					{
						OFFSET -0 -0 0.07
					}
				}
			}
		}
	}
	JOINT Right_Thigh
	{
		OFFSET -0.1118 -0.1612 -0.0442
		CHANNELS 3 Xrotation Zrotation Yrotation
		JOINT Right_Shin
		{
			OFFSET 0 -0.477856 0
			CHANNELS 1 Xrotation
			JOINT Right_Foot
			{
				OFFSET 0 -0.431952 0
				CHANNELS 2 Xrotation Zrotation
				JOINT Right_Toe
				{
					OFFSET 0 -0.0442 0.119
					CHANNELS 1 Xrotation
					End Site
					{
						OFFSET -0 -0 0.07
					}
				}
			}
		}
	}
}
MOTION
Frames: 13
Frame Time: 0.009975
-0.0981052 -0.0601445 0.0484798 -1.45673e-012 5.27008e-008 -5.10964e-006 0 -0 0 0 -0 0 0 -0 0 -0.712879 0.281448 -1.10851e-011 8.41073 -19.9798 -1.80595 -14.7902 -26.2087 -101.917 -1.864 6.61377 -14.8236 -40.5316 -43.5896 103.283 -7.10789 -4.81548 2.69559 -7.40342 -2.98992 -6.72733 5.89092 0.508958 -5.4973 -5.3917 11.1257 1.19015 -12.1062 -9.35422 19.4153 3.33565 -41.2194 -1.46018 5.45389 5.34989 -6.44532 -5.61739 35.348 79.4012 4.29587 -3.40783 -2.17808 45.3686 33.0147 81.7264 17.8808 17.0185 7.64469 12.8393 17.0221 12.8733 -3.87009 12.6053 19.4432 18.2177 -13.1185 17.066 21.0254 14.7308 -17.8505 13.9234 37.4425 4.9373 0.58567 -0.862471 -0.00881588 0.0240216 -0.609625 0.862521 0 0.597075 -0.862469 -0.00898756 1.4229e-006 -0.597009 0.862521 0 
-0.0982258 -0.0601447 0.0486753 -9.73335e-013 5.38027e-008 -5.10961e-006 0 -0 0 0 -0 0 0 -0 0 -0.712894 0.281797 -1.12624e-011 8.41073 -19.9798 -1.80595 -14.7902 -26.2087 -101.917 -1.864 6.61377 -14.8236 -40.5316 -43.5896 103.283 -7.10789 -4.81548 2.69559 -7.40342 -2.98992 -6.72733 5.89092 0.508958 -5.4973 -5.3917 11.1257 1.19015 -12.1062 -9.35422 19.4153 3.33565 -41.2194 -1.46018 5.33071 5.31763 -5.25145 -5.82966 36.0446 80.4926 4.19884 -3.33086 -2.12888 45.0239 32.7824 81.354 18.2686 17.5487 7.8986 13.0887 17.5789 13.187 -3.69056 13.0614 20.0542 18.6773 -12.9103 17.6987 21.5441 15.1499 -17.3857 14.5177 37.3363 6.10086 0.59798 -0.854871 -0.0089219 0.0240216 -0.621936 0.854923 0 0.609387 -0.85487 -0.00909208 1.19534e-006 -0.60932 0.854923 0 
-0.0983478 -0.060145 0.0488702 7.72689e-013 5.49018e-008 -5.10959e-006 0 -0 0 0 -0 0 0 -0 0 -0.712909 0.28215 -1.14266e-011 8.41073 -19.9798 -1.80595 -14.7902 -26.2087 -101.917 -1.864 6.61377 -14.8236 -40.5316 -43.5896 103.283 -7.10789 -4.81548 2.69559 -7.40342 -2.98992 -6.72733 5.89092 0.508958 -5.4973 -5.3917 11.1257 1.19015 -12.1062 -9.35422 19.4153 3.33565 -41.2194 -1.46018 5.20728 5.28526 -4.0535 -6.0038 36.7497 81.5366 4.10162 -3.25374 -2.07959 44.6793 32.5502 80.9815 18.6564 18.0789 8.15251 13.3382 18.1357 13.5008 -3.51102 13.5174 20.6652 19.1369 -12.7022 18.3315 22.0627 15.5689 -16.9209 15.1121 37.23 7.26441 0.610256 -0.847191 -0.00902327 0.0240216 -0.634211 0.847244 0 0.621662 -0.847189 -0.00919192 1.22553e-006 -0.621596 0.847244 0 
-0.0984709 -0.0601453 0.0490644 -1.05151e-012 5.59974e-008 -5.10957e-006 0 -0 0 0 -0 0 0 -0 0 -0.712923 0.282506 -1.15787e-011 8.41073 -19.9798 -1.80595 -14.7902 -26.2087 -101.917 -1.864 6.61377 -14.8236 -40.5316 -43.5896 103.283 -7.10789 -4.81548 2.69559 -7.40342 -2.98992 -6.72733 5.89092 0.508958 -5.4973 -5.3917 11.1257 1.19015 -12.1062 -9.35422 19.4153 3.33565 -41.2194 -1.46018 5.08366 5.25278 -2.85289 -6.13979 37.4625 82.5333 4.00424 -3.17649 -2.03022 44.3346 32.3179 80.6091 19.0442 18.6091 8.40641 13.5876 18.6925 13.8145 -3.33149 13.9734 21.2762 19.5965 -12.4941 18.9642 22.5813 15.9879 -16.4561 15.7064 37.1238 8.42796 0.62249 -0.839433 -0.0091199 0.0240216 -0.646445 0.839487 0 0.633896 -0.839431 -0.009287 8.36698e-007 -0.633829 0.839487 0 
-0.0985953 -0.0601457 0.0492579 -1.36678e-014 5.76189e-008 -5.10954e-006 0 -0 0 0 -0 0 0 -0 0 -0.712938 0.282866 -1.17188e-011 8.41073 -19.9798 -1.80595 -14.7902 -26.2087 -101.917 -1.864 6.61377 -14.8236 -40.5316 -43.5896 103.283 -7.10789 -4.81548 2.69559 -7.40342 -2.98992 -6.72733 5.89092 0.508958 -5.4973 -5.3917 11.1257 1.19015 -12.1062 -9.35422 19.4153 3.33565 -41.2194 -1.46018 4.95987 5.2202 -1.6511 -6.23767 38.1821 83.4826 3.90674 -3.09914 -1.98078 43.9899 32.0856 80.2367 19.432 19.1392 8.66032 13.8371 19.2493 14.1282 -3.15196 14.4295 21.8873 20.0561 -12.2859 19.5969 23.1 16.4069 -15.9913 16.3008 37.0176 9.59152 0.634676 -0.831602 -0.00921171 0.0240216 -0.658631 0.831658 0 0.646082 -0.8316 -0.00937725 1.70755e-006 -0.646016 0.831658 0 
-0.0987207 -0.0601461 0.0494506 -9.4257e-013 5.87006e-008 -5.10951e-006 0 -0 0 0 -0 0 0 -0 0 -0.712953 0.28323 -1.18463e-011 8.41073 -19.9798 -1.80595 -14.7902 -26.2087 -101.917 -1.864 6.61377 -14.8236 -40.5316 -43.5896 103.283 -7.10789 -4.81548 2.69559 -7.40342 -2.98992 -6.72733 5.89092 0.508958 -5.4973 -5.3917 11.1257 1.19015 -12.1062 -9.35422 19.4153 3.33565 -41.2194 -1.46018 4.83595 5.18753 -0.449709 -6.29754 38.9076 84.3846 3.80913 -3.02171 -1.9313 43.6453 31.8534 79.8642 19.8198 19.6694 8.91422 14.0866 19.8061 14.4419 -2.97242 14.8855 22.4983 20.5156 -12.0778 20.2296 23.6186 16.826 -15.5265 16.8951 36.9114 10.7551 0.646807 -0.823702 -0.00929863 0.0240216 -0.670762 0.82376 0 0.658213 -0.8237 -0.0094626 1.24364e-006 -0.658146 0.82376 0 
-0.0988472 -0.0601465 0.0496422 -1.31823e-012 5.92577e-008 -5.1095e-006 0 -0 0 0 -0 0 0 -0 0 -0.712968 0.283596 -1.19613e-011 8.41073 -19.9798 -1.80595 -14.7902 -26.2087 -101.917 -1.864 6.61377 -14.8236 -40.5316 -43.5896 103.283 -7.10789 -4.81548 2.69559 -7.40342 -2.98992 -6.72733 5.89092 0.508958 -5.4973 -5.3917 11.1257 1.19015 -12.1062 -9.35422 19.4153 3.33565 -41.2194 -1.46018 4.71194 5.15479 0.749667 -6.31962 39.6382 85.2393 3.71145 -2.94422 -1.88177 43.3006 31.6211 79.4918 20.2076 20.1996 9.16813 14.336 20.3629 14.7556 -2.79289 15.3415 23.1093 20.9752 -11.8696 20.8623 24.1372 17.245 -15.0617 17.4895 36.8051 11.9186 0.658877 -0.815738 -0.00938058 0.0240216 -0.682832 0.815797 0 0.670282 -0.815736 -0.00954296 1.36627e-006 -0.670216 0.815797 0 
-0.0989746 -0.0601469 0.0498328 -9.2478e-014 6.03337e-008 -5.10948e-006 0 -0 0 0 -0 0 0 -0 0 -0.712983 0.283966 -1.20631e-011 8.41073 -19.9798 -1.80595 -14.7902 -26.2087 -101.917 -1.864 6.61377 -14.8236 -40.5316 -43.5896 103.283 -7.10789 -4.81548 2.69559 -7.40342 -2.98992 -6.72733 5.89092 0.508958 -5.4973 -5.3917 11.1257 1.19015 -12.1062 -9.35422 19.4153 3.33565 -41.2194 -1.46018 4.58787 5.12199 1.94534 -6.30417 40.3729 86.0466 3.61373 -2.8667 -1.83222 42.9559 31.3888 79.1194 20.5954 20.7298 9.42204 14.5855 20.9197 15.0693 -2.61336 15.7976 23.7203 21.4348 -11.6615 21.495 24.6559 17.664 -14.5968 18.0838 36.6989 13.0822 0.670881 -0.807711 -0.00945752 0.0240216 -0.694835 0.807772 0 0.682286 -0.807709 -0.00961829 1.47246e-006 -0.682219 0.807772 0 
-0.099103 -0.0601474 0.0500222 2.67121e-013 6.14034e-008 -5.10946e-006 0 -0 0 0 -0 0 0 -0 0 -0.712998 0.284338 -1.21524e-011 8.41073 -19.9798 -1.80595 -14.7902 -26.2087 -101.917 -1.864 6.61377 -14.8236 -40.5316 -43.5896 103.283 -7.10789 -4.81548 2.69559 -7.40342 -2.98992 -6.72733 5.89092 0.508958 -5.4973 -5.3917 11.1257 1.19015 -12.1062 -9.35422 19.4153 3.33565 -41.2194 -1.46018 4.46378 5.08914 3.13558 -6.25158 41.1109 86.8065 3.51599 -2.78917 -1.78267 42.6112 31.1565 78.7469 20.9832 21.2599 9.67594 14.8349 21.4765 15.383 -2.43382 16.2536 24.3314 21.8944 -11.4534 22.1277 25.1745 18.083 -14.132 18.6782 36.5927 14.2457 0.682811 -0.799627 -0.00952939 0.0240216 -0.706766 0.799689 0 0.694217 -0.799625 -0.00968856 1.15308e-006 -0.69415 0.799689 0 
-0.0992322 -0.0601479 0.0502104 2.54546e-013 6.24663e-008 -5.10943e-006 0 -0 0 0 -0 0 0 -0 0 -0.713012 0.284713 -1.22282e-011 8.41073 -19.9798 -1.80595 -14.7902 -26.2087 -101.917 -1.864 6.61377 -14.8236 -40.5316 -43.5896 103.283 -7.10789 -4.81548 2.69559 -7.40342 -2.98992 -6.72733 5.89092 0.508958 -5.4973 -5.3917 11.1257 1.19015 -12.1062 -9.35422 19.4153 3.33565 -41.2194 -1.46018 4.33971 5.05625 4.31862 -6.16232 41.8513 87.519 3.41826 -2.71164 -1.73312 42.2666 30.9243 78.3745 21.371 21.7901 9.92985 15.0844 22.0333 15.6968 -2.25429 16.7096 24.9424 22.3539 -11.2452 22.7605 25.6931 18.502 -13.6672 19.2725 36.4864 15.4093 0.694662 -0.791489 -0.00959614 0.0240216 -0.718617 0.791552 0 0.706068 -0.791487 -0.0097537 2.41484e-006 -0.706003 0.791552 0 
-0.0993622 -0.0601484 0.0503972 -9.99191e-013 6.35218e-008 -5.10941e-006 0 -0 0 0 -0 0 0 -0 0 -0.713027 0.285091 -1.22906e-011 8.41073 -19.9798 -1.80595 -14.7902 -26.2087 -101.917 -1.864 6.61377 -14.8236 -40.5316 -43.5896 103.283 -7.10789 -4.81548 2.69559 -7.40342 -2.98992 -6.72733 5.89092 0.508958 -5.4973 -5.3917 11.1257 1.19015 -12.1062 -9.35422 19.4153 3.33565 -41.2194 -1.46018 4.21569 5.02333 5.49266 -6.03698 42.5931 88.184 3.32057 -2.63415 -1.68359 41.9219 30.692 78.0021 21.7589 22.3203 10.1838 15.3339 22.5901 16.0105 -2.07476 17.1657 25.5534 22.8135 -11.0371 23.3932 26.2118 18.9211 -13.2024 19.8669 36.3802 16.5728 0.706429 -0.783299 -0.00965774 0.0240216 -0.730384 0.783364 0 0.717835 -0.783297 -0.00981366 1.70755e-006 -0.717769 0.783364 0 
-0.099493 -0.060149 0.0505826 -1.14958e-012 6.45695e-008 -5.10939e-006 0 -0 0 0 -0 0 0 -0 0 -0.713042 0.28547 -1.23398e-011 8.41073 -19.9798 -1.80595 -14.7902 -26.2087 -101.917 -1.864 6.61377 -14.8236 -40.5316 -43.5896 103.283 -7.10789 -4.81548 2.69559 -7.40342 -2.98992 -6.72733 5.89092 0.508958 -5.4973 -5.3917 11.1257 1.19015 -12.1062 -9.35422 19.4153 3.33565 -41.2194 -1.46018 4.09175 4.99039 6.65588 -5.87626 43.3355 88.8015 3.22295 -2.5567 -1.63409 41.5772 30.4597 77.6296 22.1467 22.8504 10.4377 15.5833 23.1469 16.3242 -1.89522 17.6217 26.1644 23.2731 -10.8289 24.0259 26.7304 19.3401 -12.7376 20.4612 36.274 17.7364 0.718105 -0.775062 -0.00971415 0.0240216 -0.742061 0.775128 0 0.729511 -0.77506 -0.00986844 1.70755e-006 -0.729446 0.775128 0 
-0.0996245 -0.0601496 0.0507665 -7.61402e-013 6.56088e-008 -5.10936e-006 0 -0 0 0 -0 0 0 -0 0 -0.713057 0.285852 -1.23757e-011 8.41073 -19.9798 -1.80595 -14.7902 -26.2087 -101.917 -1.864 6.61377 -14.8236 -40.5316 -43.5896 103.283 -7.10789 -4.81548 2.69559 -7.40342 -2.98992 -6.72733 5.89092 0.508958 -5.4973 -5.3917 11.1257 1.19015 -12.1062 -9.35422 19.4153 3.33565 -41.2194 -1.46018 3.96793 4.95744 7.80648 -5.68099 44.0776 89.3715 3.12542 -2.47934 -1.58464 41.2326 30.2275 77.2572 22.5345 23.3806 10.6916 15.8328 23.7037 16.6379 -1.71569 18.0777 26.7755 23.7327 -10.6208 24.6586 27.249 19.7591 -12.2728 21.0556 36.1678 18.8999 0.729685 -0.766781 -0.00976536 0.0240216 -0.753642 0.766848 0 0.741091 -0.766779 -0.009918 1.70755e-006 -0.741027 0.766848 0 
